HIERARCHY
ROOT hip
{
  OFFSET 0 0 0
  CHANNELS 6 Xposition Yposition Zposition Zrotation Yrotation Xrotation
  JOINT abdomen
  {
    OFFSET 0 20.6881 -0.73152
    CHANNELS 3 Zrotation Xrotation Yrotation
    JOINT chest
    {
      OFFSET 0 11.7043 -0.48768
      CHANNELS 3 Zrotation Xrotation Yrotation
      JOINT neck
      {
        OFFSET 0 22.1894 -2.19456
        CHANNELS 3 Zrotation Xrotation Yrotation
        JOINT head
        {
          OFFSET -0.24384 7.07133 1.2192
          CHANNELS 3 Zrotation Xrotation Yrotation
          JOINT leftEye
          {
            OFFSET 4.14528 8.04674 8.04672
            CHANNELS 3 Zrotation Xrotation Yrotation
            End Site
            {
              OFFSET 1 0 0
            }
          }
          JOINT rightEye
          {
            OFFSET -3.6576 8.04674 8.04672
            CHANNELS 3 Zrotation Xrotation Yrotation
            End Site
            {
              OFFSET 1 0 0
            }
          }
        }
      }
      JOINT rCollar
      {
        OFFSET -2.68224 19.2634 -4.8768
        CHANNELS 3 Zrotation Xrotation Yrotation
        JOINT rShldr
        {
          OFFSET -8.77824 -1.95073 1.46304
          CHANNELS 3 Zrotation Xrotation Yrotation
          JOINT rForeArm
          {
            OFFSET -28.1742 -1.7115 0.48768
            CHANNELS 3 Zrotation Xrotation Yrotation
            JOINT rHand
            {
              OFFSET -22.5879 0.773209 7.07136
              CHANNELS 3 Zrotation Xrotation Yrotation
              JOINT rThumb1
              {
                OFFSET -1.2192 -0.487915 3.41376
                CHANNELS 3 Zrotation Xrotation Yrotation
                JOINT rThumb2
                {
                  OFFSET -3.37035 -0.52449 3.41376
                  CHANNELS 3 Zrotation Xrotation Yrotation
                  End Site
                  {
                    OFFSET -1.78271 -1.18214 1.43049
                  }
                }
              }
              JOINT rIndex1
              {
                OFFSET -7.75947 0.938293 5.60832
                CHANNELS 3 Zrotation Xrotation Yrotation
                JOINT rIndex2
                {
                  OFFSET -2.54057 -0.884171 1.56538
                  CHANNELS 3 Zrotation Xrotation Yrotation
                  End Site
                  {
                    OFFSET -1.62519 -0.234802 1.16502
                  }
                }
              }
              JOINT rMid1
              {
                OFFSET -8.24714 1.18213 3.41376
                CHANNELS 3 Zrotation Xrotation Yrotation
                JOINT rMid2
                {
                  OFFSET -3.10165 -0.590103 1.0647
                  CHANNELS 3 Zrotation Xrotation Yrotation
                  End Site
                  {
                    OFFSET -2.48547 -0.328903 0.83742
                  }
                }
              }
              JOINT rRing1
              {
                OFFSET -8.82822 0.546677 1.51678
                CHANNELS 3 Zrotation Xrotation Yrotation
                JOINT rRing2
                {
                  OFFSET -2.60934 -0.819778 -0.0198488
                  CHANNELS 3 Zrotation Xrotation Yrotation
                  End Site
                  {
                    OFFSET -2.33842 -0.294052 0.168128
                  }
                }
              }
              JOINT rPinky1
              {
                OFFSET -8.27202 -0.0477905 -0.4584
                CHANNELS 3 Zrotation Xrotation Yrotation
                JOINT rPinky2
                {
                  OFFSET -1.82734 -0.647385 -0.700984
                  CHANNELS 3 Zrotation Xrotation Yrotation
                  End Site
                  {
                    OFFSET -1.69225 -0.51767 -0.607171
                  }
                }
              }
            }
          }
        }
      }
      JOINT lCollar
      {
        OFFSET 2.68224 19.2634 -4.8768
        CHANNELS 3 Zrotation Xrotation Yrotation
        JOINT lShldr
        {
          OFFSET 8.77824 -1.95073 1.46304
          CHANNELS 3 Zrotation Xrotation Yrotation
          JOINT lForeArm
          {
            OFFSET 28.1742 -1.7115 0.48768
            CHANNELS 3 Zrotation Xrotation Yrotation
            JOINT lHand
            {
              OFFSET 22.5879 0.773209 7.07136
              CHANNELS 3 Zrotation Xrotation Yrotation
              JOINT lThumb1
              {
                OFFSET 1.2192 -0.487915 3.41376
                CHANNELS 3 Zrotation Xrotation Yrotation
                JOINT lThumb2
                {
                  OFFSET 3.37035 -0.52449 3.41376
                  CHANNELS 3 Zrotation Xrotation Yrotation
                  End Site
                  {
                    OFFSET 1.78271 -1.18214 1.43049
                  }
                }
              }
              JOINT lIndex1
              {
                OFFSET 7.75947 0.938293 5.60832
                CHANNELS 3 Zrotation Xrotation Yrotation
                JOINT lIndex2
                {
                  OFFSET 2.54057 -0.884171 1.56538
                  CHANNELS 3 Zrotation Xrotation Yrotation
                  End Site
                  {
                    OFFSET 1.62519 -0.234802 1.16502
                  }
                }
              }
              JOINT lMid1
              {
                OFFSET 8.24714 1.18213 3.41376
                CHANNELS 3 Zrotation Xrotation Yrotation
                JOINT lMid2
                {
                  OFFSET 3.10165 -0.590103 1.0647
                  CHANNELS 3 Zrotation Xrotation Yrotation
                  End Site
                  {
                    OFFSET 2.48547 -0.328903 0.83742
                  }
                }
              }
              JOINT lRing1
              {
                OFFSET 8.82822 0.546677 1.51678
                CHANNELS 3 Zrotation Xrotation Yrotation
                JOINT lRing2
                {
                  OFFSET 2.60934 -0.819778 -0.0198488
                  CHANNELS 3 Zrotation Xrotation Yrotation
                  End Site
                  {
                    OFFSET 2.33842 -0.294052 0.168128
                  }
                }
              }
              JOINT lPinky1
              {
                OFFSET 8.27202 -0.0477905 -0.4584
                CHANNELS 3 Zrotation Xrotation Yrotation
                JOINT lPinky2
                {
                  OFFSET 1.82734 -0.647385 -0.700984
                  CHANNELS 3 Zrotation Xrotation Yrotation
                  End Site
                  {
                    OFFSET 1.69225 -0.51767 -0.607171
                  }
                }
              }
            }
          }
        }
      }
    }
  }
  JOINT rButtock
  {
    OFFSET -8.77824 4.35084 1.2192
    CHANNELS 3 Zrotation Xrotation Yrotation
    JOINT rThigh
    {
      OFFSET 0 -1.70687 -2.19456
      CHANNELS 3 Zrotation Xrotation Yrotation
      JOINT rShin
      {
        OFFSET 0 -36.8199 0.73152
        CHANNELS 3 Zrotation Xrotation Yrotation
        JOINT rFoot
        {
          OFFSET 0.73152 -45.1104 -5.12064
          CHANNELS 3 Zrotation Xrotation Yrotation
          End Site
          {
            OFFSET -1.1221 -3.69964 12.103
          }
        }
      }
    }
  }
  JOINT lButtock
  {
    OFFSET 8.77824 4.35084 1.2192
    CHANNELS 3 Zrotation Xrotation Yrotation
    JOINT lThigh
    {
      OFFSET 0 -1.70687 -2.19456
      CHANNELS 3 Zrotation Xrotation Yrotation
      JOINT lShin
      {
        OFFSET 0 -36.8199 0.73152
        CHANNELS 3 Zrotation Xrotation Yrotation
        JOINT lFoot
        {
          OFFSET -0.73152 -45.1104 -5.12064
          CHANNELS 3 Zrotation Xrotation Yrotation
          End Site
          {
            OFFSET 1.1221 -3.69964 12.103
          }
        }
      }
    }
  }
}
MOTION
Frames:	4
Frame Time:	0.00833333
-86.4259 85.1887 6.22979 0.0 0.0 0.0 0.55935 -0.00286671 0.0159888 0.154366 -0.00442833 0.026746 7.20463e-15 7.95139e-16 -1.11816e-16 2.17079e-14 9.54166e-15 -3.27684e-16 -0.0 0.0 0.0 -0.0 0.0 0.0 3.67624e-15 -1.28123e-17 9.93923e-17 7.79248e-14 -3.91357e-16 1.98785e-16 1.31019e-12 -3.98961e-13 -3.49861e-14 1.49646e-11 3.45811e-13 -2.00375e-13 3.53004e-11 -1.12329e-13 -4.96167e-13 6.09474e-11 -1.94014e-13 -8.59545e-13 3.53057e-11 -1.13307e-13 -4.96167e-13 7.73091 5.47488 0.417314 3.53004e-11 -1.12413e-13 -4.89805e-13 2.90554 0.965183 0.102902 3.53071e-11 -1.12015e-13 -4.96167e-13 10.2786 0.731801 0.0259123 3.5294e-11 -1.10127e-13 -4.83444e-13 2.22167 -0.733487 -0.20892 3.48025e-15 -1.28123e-17 -1.98785e-16 7.51846e-14 -4.03781e-16 -1.59028e-15 1.30517e-12 3.83654e-13 -3.18055e-14 1.49627e-11 -4.30468e-13 -1.87653e-13 3.52924e-11 -1.01233e-13 -4.96167e-13 6.09585e-11 -1.74931e-13 -8.53979e-13 3.52887e-11 -1.0297e-13 -4.89805e-13 -7.73091 5.47488 -0.417314 3.52944e-11 -1.0148e-13 -4.96167e-13 -2.90554 0.965183 -0.102902 3.52904e-11 -1.0138e-13 -4.95371e-13 -10.2786 0.731801 -0.0259123 3.53018e-11 -9.70069e-14 -4.99347e-13 -2.22167 -0.733487 0.20892 -2.03217e-16 0.0 -3.88251e-19 0.923015 -4.50512 -0.0770324 -0.00206845 2.60853 -0.00963105 -0.502483 1.89677 0.0959449 2.03217e-16 0.0 3.88251e-19 -0.0712249 -2.35216 0.0224553 0.0080718 -1.29118 0.0691972 0.494594 3.64342 -0.130515
-84.5355 84.2511 2.64407 -107.336 88.0538 -95.8586 1.50173 -4.58262 0.691186 -0.37772 0.927894 0.217418 -0.913718 2.22447 -2.0663 0.45831 -1.21784 -3.79445 -0.0 0.0 0.0 -0.0 0.0 0.0 1.80458e-14 5.27269e-13 -3.19764e-15 24.8449 4.09909 -0.877529 -3.8627 -1.68962 6.10233 0.142626 8.3984 1.13512 -4.77346e-11 -9.00834e-12 -4.3674e-11 -8.30114e-11 -1.56585e-11 -7.43338e-11 -4.77277e-11 -9.01139e-12 -4.36736e-11 7.73091 5.47488 0.417314 -4.77389e-11 -9.01068e-12 -4.36656e-11 2.90554 0.965183 0.102902 -4.77276e-11 -9.00991e-12 -4.36746e-11 10.2786 0.731801 0.0259123 -4.77401e-11 -9.00818e-12 -4.36631e-11 2.22167 -0.733487 -0.20892 1.78686e-14 5.27269e-13 -3.52649e-15 -24.0882 8.94051 -1.04855 3.26753 -1.33527 -5.25433 -0.00163344 0.896561 -0.125948 -3.52314e-11 2.73121e-11 -1.67263e-10 -6.23996e-11 4.71913e-11 -2.87648e-10 -3.52353e-11 2.731e-11 -1.67258e-10 -7.73091 5.47488 -0.417314 -3.52306e-11 2.73109e-11 -1.67262e-10 -2.90554 0.965183 -0.102902 -3.52352e-11 2.73107e-11 -1.67263e-10 -10.2786 0.731801 -0.0259123 -3.52223e-11 2.73157e-11 -1.67268e-10 -2.22167 -0.733487 0.20892 -2.03217e-16 0.0 -3.88251e-19 1.33946 -7.61198 1.06019 0.000781158 4.9588 0.0456245 -0.700426 -1.73446 -2.70472 2.03217e-16 0.0 3.88251e-19 1.21669 -5.32151 1.16442 0.00223493 1.20478 0.0109623 0.5654 -0.402722 1.21538
-84.5749 84.2443 2.65581 -109.171 87.9633 -97.5122 2.61023 -9.41806 1.41976 -0.945022 1.91023 0.419388 -1.71206 4.56455 -4.26078 0.779599 -2.48611 -7.80943 -0.0 0.0 0.0 -0.0 0.0 0.0 3.35445e-14 1.09667e-12 -8.51047e-15 51.2454 8.41418 -1.8201 -7.55788 -3.41236 12.5714 -0.0843075 17.2971 2.42357 -1.08718e-10 -1.59114e-11 -9.91532e-11 -1.89137e-10 -2.76539e-11 -1.69648e-10 -1.08709e-10 -1.59167e-11 -9.91522e-11 7.73091 5.47488 0.417314 -1.08727e-10 -1.59162e-11 -9.91425e-11 2.90554 0.965183 0.102902 -1.08711e-10 -1.5915e-11 -9.91546e-11 10.2786 0.731801 0.0259123 -1.08722e-10 -1.59135e-11 -9.91443e-11 2.22167 -0.733487 -0.20892 3.3386e-14 1.09667e-12 -8.87387e-15 -49.1796 18.3799 -2.2459 6.45656 -2.70932 -10.8178 0.000926805 1.84332 -0.259051 -1.23514e-10 5.21647e-11 -3.25117e-10 -2.16503e-10 9.01433e-11 -5.58833e-10 -1.23518e-10 5.21622e-11 -3.25113e-10 -7.73091 5.47488 -0.417314 -1.23514e-10 5.21624e-11 -3.25115e-10 -2.90554 0.965183 -0.102902 -1.2352e-10 5.21618e-11 -3.25118e-10 -10.2786 0.731801 -0.0259123 -1.23505e-10 5.21675e-11 -3.25123e-10 -2.22167 -0.733487 0.20892 -2.03217e-16 0.0 -3.88251e-19 1.91016 -10.8875 2.29158 -0.00117553 7.44079 0.104548 -1.29873 -5.54233 -5.70875 2.03217e-16 0.0 3.88251e-19 2.70311 -8.45121 2.39318 0.00158639 3.83663 -0.0505512 0.846115 -4.67338 2.64018
-84.6188 84.2372 2.66973 -110.08 87.875 -98.2213 3.71839 -13.7343 2.09488 -1.46053 2.79241 0.599389 -2.2581 6.63858 -6.2362 0.893747 -3.58946 -11.4035 -0.0 0.0 0.0 -0.0 0.0 0.0 4.67849e-14 1.58183e-12 -9.7917e-15 74.9188 12.2856 -2.68744 -10.5256 -4.83931 18.3668 -0.658627 25.1535 3.72222 -2.13805e-10 -2.68004e-11 -1.3003e-10 -3.70929e-10 -4.65874e-11 -2.21282e-10 -2.13795e-10 -2.68076e-11 -1.30028e-10 7.73091 5.47488 0.417314 -2.13818e-10 -2.68072e-11 -1.30017e-10 2.90554 0.965183 0.102902 -2.13797e-10 -2.68057e-11 -1.30032e-10 10.2786 0.731801 0.0259123 -2.13808e-10 -2.68043e-11 -1.30022e-10 2.22167 -0.733487 -0.20892 4.66454e-14 1.58183e-12 -1.01819e-14 -71.1832 26.7833 -3.48131 9.07677 -3.87128 -15.7957 0.00693563 2.68963 -0.378213 -1.76279e-10 8.21387e-11 -5.00797e-10 -3.09116e-10 1.41924e-10 -8.61237e-10 -1.76283e-10 8.2136e-11 -5.00793e-10 -7.73091 5.47488 -0.417314 -1.76281e-10 8.21358e-11 -5.00794e-10 -2.90554 0.965183 -0.102902 -1.76287e-10 8.21348e-11 -5.00799e-10 -10.2786 0.731801 -0.0259123 -1.7627e-10 8.21411e-11 -5.00805e-10 -2.22167 -0.733487 0.20892 -2.03217e-16 0.0 -3.88251e-19 2.55226 -13.8061 3.40459 -0.00729582 9.65931 0.157841 -2.16741 -8.90762 -8.40429 2.03217e-16 0.0 3.88251e-19 4.15366 -11.243 3.50058 0.00582384 6.19671 -0.1061 1.281 -8.47542 3.94974
